<svg id="Capa_1" data-name="Capa 1" xmlns="http://www.w3.org/2000/svg" viewBox="0 0 211.63 211.36"><defs><style>.cls-1{fill:#ffc600;}</style></defs><title>hotel</title><path class="cls-1" d="M157,44.24H54.61a3.41,3.41,0,0,0-3.41,3.41V208.08a3.41,3.41,0,0,0,3.41,3.41H157a3.42,3.42,0,0,0,3.42-3.41V47.65A3.42,3.42,0,0,0,157,44.24ZM153.6,204.66H58V51.06H153.6Z" transform="translate(0 -0.13)"/><path class="cls-1" d="M105.81,167.12A20.51,20.51,0,0,0,85.33,187.6v20.48a3.42,3.42,0,0,0,3.42,3.41h34.13a3.41,3.41,0,0,0,3.41-3.41V187.6A20.5,20.5,0,0,0,105.81,167.12Zm13.66,37.54H92.16V187.6a13.66,13.66,0,1,1,27.31,0v17.06Z" transform="translate(0 -0.13)"/><path class="cls-1" d="M81.92,57.89H68.27a3.42,3.42,0,0,0-3.42,3.42V81.79a3.42,3.42,0,0,0,3.42,3.41H81.92a3.41,3.41,0,0,0,3.41-3.41V61.31A3.42,3.42,0,0,0,81.92,57.89ZM78.51,78.37H71.68V64.72h6.83Z" transform="translate(0 -0.13)"/><path class="cls-1" d="M116.05,57.89H95.57a3.42,3.42,0,0,0-3.41,3.42V81.79a3.41,3.41,0,0,0,3.41,3.41h20.48a3.42,3.42,0,0,0,3.42-3.41V61.31A3.42,3.42,0,0,0,116.05,57.89Zm-3.41,20.48H99V64.72h13.65Z" transform="translate(0 -0.13)"/><path class="cls-1" d="M143.36,57.89H129.71a3.42,3.42,0,0,0-3.42,3.42V81.79a3.42,3.42,0,0,0,3.42,3.41h13.65a3.41,3.41,0,0,0,3.41-3.41V61.31A3.42,3.42,0,0,0,143.36,57.89ZM140,78.37h-6.83V64.72H140Z" transform="translate(0 -0.13)"/><path class="cls-1" d="M81.92,92H68.27a3.41,3.41,0,0,0-3.42,3.41v20.48a3.42,3.42,0,0,0,3.42,3.41H81.92a3.41,3.41,0,0,0,3.41-3.41V95.44A3.41,3.41,0,0,0,81.92,92ZM78.51,112.5H71.68V98.85h6.83Z" transform="translate(0 -0.13)"/><path class="cls-1" d="M116.05,92H95.57a3.41,3.41,0,0,0-3.41,3.41v20.48a3.41,3.41,0,0,0,3.41,3.41h20.48a3.42,3.42,0,0,0,3.42-3.41V95.44A3.41,3.41,0,0,0,116.05,92Zm-3.41,20.47H99V98.85h13.65Z" transform="translate(0 -0.13)"/><path class="cls-1" d="M143.36,92H129.71a3.41,3.41,0,0,0-3.42,3.41v20.48a3.42,3.42,0,0,0,3.42,3.41h13.65a3.41,3.41,0,0,0,3.41-3.41V95.44A3.41,3.41,0,0,0,143.36,92ZM140,112.5h-6.83V98.85H140Z" transform="translate(0 -0.13)"/><path class="cls-1" d="M81.92,126.16H68.27a3.42,3.42,0,0,0-3.42,3.41v20.48a3.41,3.41,0,0,0,3.42,3.41H81.92a3.41,3.41,0,0,0,3.41-3.41V129.57A3.41,3.41,0,0,0,81.92,126.16Zm-3.41,20.48H71.68V133h6.83Z" transform="translate(0 -0.13)"/><path class="cls-1" d="M116.05,126.16H95.57a3.41,3.41,0,0,0-3.41,3.41v20.48a3.41,3.41,0,0,0,3.41,3.41h20.48a3.41,3.41,0,0,0,3.42-3.41V129.57A3.42,3.42,0,0,0,116.05,126.16Zm-3.41,20.48H99V133h13.65Z" transform="translate(0 -0.13)"/><path class="cls-1" d="M143.36,126.16H129.71a3.42,3.42,0,0,0-3.42,3.41v20.48a3.41,3.41,0,0,0,3.42,3.41h13.65a3.41,3.41,0,0,0,3.41-3.41V129.57A3.41,3.41,0,0,0,143.36,126.16ZM140,146.64h-6.83V133H140Z" transform="translate(0 -0.13)"/><path class="cls-1" d="M75.09,163.71a3.41,3.41,0,0,0-3.41,3.41v41a3.42,3.42,0,0,0,6.83,0v-41A3.41,3.41,0,0,0,75.09,163.71Z" transform="translate(0 -0.13)"/><path class="cls-1" d="M136.53,163.71a3.41,3.41,0,0,0-3.41,3.41v41a3.42,3.42,0,0,0,6.83,0v-41A3.41,3.41,0,0,0,136.53,163.71Z" transform="translate(0 -0.13)"/><path class="cls-1" d="M54.61,109.09h-41a3.42,3.42,0,0,0-3.41,3.42v81.92a3.41,3.41,0,0,0,3.41,3.41h41A3.42,3.42,0,0,0,58,194.43V112.51A3.42,3.42,0,0,0,54.61,109.09ZM51.2,191H17.07V115.92H51.2Z" transform="translate(0 -0.13)"/><path class="cls-1" d="M41,122.75H27.31a3.41,3.41,0,0,0-3.42,3.41v20.48a3.42,3.42,0,0,0,3.42,3.41H41a3.41,3.41,0,0,0,3.41-3.41V126.16A3.41,3.41,0,0,0,41,122.75Zm-3.41,20.48H30.72V129.57h6.83Z" transform="translate(0 -0.13)"/><path class="cls-1" d="M41,156.88H27.31a3.42,3.42,0,0,0-3.42,3.41v20.48a3.41,3.41,0,0,0,3.42,3.41H41a3.41,3.41,0,0,0,3.41-3.41V160.29A3.41,3.41,0,0,0,41,156.88Zm-3.41,20.48H30.72V163.71h6.83Z" transform="translate(0 -0.13)"/><path class="cls-1" d="M17.07,109.09H3.41a3.42,3.42,0,0,0,0,6.83H17.07a3.42,3.42,0,0,0,0-6.83Z" transform="translate(0 -0.13)"/><path class="cls-1" d="M198,109.09H157a3.42,3.42,0,0,0-3.41,3.42v81.92a3.41,3.41,0,0,0,3.41,3.41h41a3.42,3.42,0,0,0,3.42-3.41V112.51A3.42,3.42,0,0,0,198,109.09ZM194.56,191H160.43V115.92h34.13Z" transform="translate(0 -0.13)"/><path class="cls-1" d="M184.32,122.75H170.67a3.41,3.41,0,0,0-3.42,3.41v20.48a3.42,3.42,0,0,0,3.42,3.41h13.65a3.41,3.41,0,0,0,3.41-3.41V126.16A3.41,3.41,0,0,0,184.32,122.75Zm-3.41,20.48h-6.83V129.57h6.83Z" transform="translate(0 -0.13)"/><path class="cls-1" d="M184.32,156.88H170.67a3.42,3.42,0,0,0-3.42,3.41v20.48a3.41,3.41,0,0,0,3.42,3.41h13.65a3.41,3.41,0,0,0,3.41-3.41V160.29A3.41,3.41,0,0,0,184.32,156.88Zm-3.41,20.48h-6.83V163.71h6.83Z" transform="translate(0 -0.13)"/><path class="cls-1" d="M208.21,109.09H194.56a3.42,3.42,0,0,0,0,6.83h13.65a3.42,3.42,0,1,0,0-6.83Z" transform="translate(0 -0.13)"/><path class="cls-1" d="M58,44.24H44.37a3.42,3.42,0,0,0,0,6.83H58a3.42,3.42,0,0,0,0-6.83Z" transform="translate(0 -0.13)"/><path class="cls-1" d="M167.25,44.24H153.6a3.42,3.42,0,0,0,0,6.83h13.65a3.42,3.42,0,1,0,0-6.83Z" transform="translate(0 -0.13)"/><path class="cls-1" d="M126.12,14.12a3.42,3.42,0,0,0-2.75-2.32l-9.29-1.35L109.93,2a3.41,3.41,0,0,0-6.12,0l-4.15,8.41L90.37,11.8a3.41,3.41,0,0,0-1.89,5.82l6.72,6.55-1.59,9.25a3.41,3.41,0,0,0,5,3.6l8.31-4.37,8.3,4.37a3.42,3.42,0,0,0,5-3.6l-1.59-9.25,6.72-6.55A3.39,3.39,0,0,0,126.12,14.12Zm-13.63,6.42a3.42,3.42,0,0,0-1,3l.72,4.2-3.77-2a3.38,3.38,0,0,0-3.18,0l-3.77,2,.72-4.2a3.42,3.42,0,0,0-1-3l-3-3,4.21-.61A3.38,3.38,0,0,0,105,15.08l1.89-3.82,1.88,3.82A3.41,3.41,0,0,0,111.32,17l4.22.61Z" transform="translate(0 -0.13)"/><path class="cls-1" d="M163.67,14.89a3.42,3.42,0,0,0-2.75-2.32l-6.93-1-3.1-6.27a3.41,3.41,0,0,0-6.12,0l-3.1,6.27-6.93,1a3.41,3.41,0,0,0-1.89,5.82l5,4.89-1.18,6.89a3.4,3.4,0,0,0,4.95,3.6l6.2-3.26L154,33.77a3.42,3.42,0,0,0,5-3.59l-1.19-6.9,5-4.89A3.4,3.4,0,0,0,163.67,14.89Zm-11.93,4.75a3.42,3.42,0,0,0-1,3l.32,1.85-1.66-.87a3.44,3.44,0,0,0-3.18,0l-1.66.87.32-1.85a3.42,3.42,0,0,0-1-3l-1.35-1.31,1.86-.27A3.44,3.44,0,0,0,147,16.19l.83-1.68.83,1.68a3.44,3.44,0,0,0,2.57,1.87l1.86.27Z" transform="translate(0 -0.13)"/><path class="cls-1" d="M197.81,17.66a3.44,3.44,0,0,0-2.76-2.32l-5.3-.77-2.37-4.8a3.41,3.41,0,0,0-6.12,0l-2.37,4.8-5.3.77a3.41,3.41,0,0,0-1.89,5.82l3.83,3.74-.9,5.28a3.41,3.41,0,0,0,5,3.6l4.74-2.5,4.74,2.5a3.46,3.46,0,0,0,1.59.39,3.39,3.39,0,0,0,2-.65A3.42,3.42,0,0,0,194,30.18l-.9-5.28,3.83-3.74A3.42,3.42,0,0,0,197.81,17.66Zm-10.75,3.6a3.39,3.39,0,0,0-1,3l0,.23-.21-.11a3.44,3.44,0,0,0-3.18,0l-.21.11,0-.23a3.41,3.41,0,0,0-1-3l-.17-.16.24,0a3.39,3.39,0,0,0,2.56-1.86l.11-.21.11.2A3.38,3.38,0,0,0,187,21.06l.23,0Z" transform="translate(0 -0.13)"/><path class="cls-1" d="M81.75,14.89A3.42,3.42,0,0,0,79,12.57l-6.93-1L69,5.29a3.41,3.41,0,0,0-6.12,0l-3.1,6.27-6.93,1a3.41,3.41,0,0,0-1.89,5.82l5,4.89-1.18,6.9a3.43,3.43,0,0,0,3.37,4,3.28,3.28,0,0,0,1.58-.4l6.2-3.26,6.19,3.26a3.42,3.42,0,0,0,5-3.59l-1.19-6.9,5-4.89A3.41,3.41,0,0,0,81.75,14.89ZM69.82,19.64a3.42,3.42,0,0,0-1,3l.32,1.85-1.66-.87a3.44,3.44,0,0,0-3.18,0l-1.66.87L63,22.66a3.42,3.42,0,0,0-1-3l-1.35-1.31,1.86-.27a3.44,3.44,0,0,0,2.57-1.87l.83-1.68.83,1.68a3.44,3.44,0,0,0,2.57,1.87l1.86.27Z" transform="translate(0 -0.13)"/><path class="cls-1" d="M42.91,17.66a3.39,3.39,0,0,0-2.76-2.32l-5.3-.77-2.37-4.8a3.41,3.41,0,0,0-6.12,0L24,14.57l-5.3.77a3.41,3.41,0,0,0-1.89,5.82l3.84,3.74-.91,5.28a3.41,3.41,0,0,0,4.95,3.6l4.74-2.5,4.74,2.5a3.46,3.46,0,0,0,1.59.39,3.38,3.38,0,0,0,2-.66,3.42,3.42,0,0,0,1.36-3.33l-.91-5.28,3.84-3.74A3.42,3.42,0,0,0,42.91,17.66Zm-10.75,3.6a3.42,3.42,0,0,0-1,3l0,.23L31,24.4a3.44,3.44,0,0,0-3.18,0l-.2.11,0-.23a3.44,3.44,0,0,0-1-3l-.16-.16.23,0a3.43,3.43,0,0,0,2.57-1.86l.1-.21.1.2a3.41,3.41,0,0,0,2.57,1.87l.24,0Z" transform="translate(0 -0.13)"/></svg>