<svg id="Capa_1" data-name="Capa 1" xmlns="http://www.w3.org/2000/svg" viewBox="0 0 331.52 334.88"><defs><style>.cls-1{fill:#ffc600;}</style></defs><title>wallet</title><path class="cls-1" d="M333.2,156H317.13V82.09A32.17,32.17,0,0,0,285,50H263.23L241,9.92a19.27,19.27,0,0,0-26.22-7.49L129.28,50H33.81A32.17,32.17,0,0,0,1.68,82.09V302.74a32.18,32.18,0,0,0,32.13,32.14H285a32.18,32.18,0,0,0,32.14-32.14v-64.8H333.2V156ZM285,62.81A19.24,19.24,0,0,1,304.06,80H279.91l-9.52-17.14ZM221,13.66a6.54,6.54,0,0,1,8.73,2.5l35.48,63.78H101.8Zm83.27,289.08A19.3,19.3,0,0,1,285,322H33.81a19.3,19.3,0,0,1-19.28-19.28V82.09A19.3,19.3,0,0,1,33.81,62.81h72.36L75.35,80H37.83a6.43,6.43,0,0,0,0,12.85H304.28V156h-47a39.63,39.63,0,0,0-39.59,39.58v2.77A39.64,39.64,0,0,0,257.28,238h47v64.79Zm16.07-77.65H257.28a26.76,26.76,0,0,1-26.74-26.74v-2.76a26.76,26.76,0,0,1,26.74-26.74h63.06ZM277,197.5a14.19,14.19,0,1,1-14.19-14.19A14.19,14.19,0,0,1,277,197.5Z" transform="translate(-1.68)"/></svg>