<svg width="123" height="36" viewBox="0 0 123 36" fill="none" xmlns="http://www.w3.org/2000/svg">
<path d="M17.63 0V27.2C17.63 27.4933 17.5633 27.6933 17.43 27.8C17.2966 27.88 16.8566 27.9333 16.11 27.96C15.3633 27.9867 14.35 28 13.07 28L13.27 20.32C13.3233 18.4267 13.43 16.6 13.59 14.84C13.7766 13.0533 13.95 11.6 14.11 10.48C14.27 9.36 14.3766 8.65333 14.43 8.36L14.31 8.28C13.3233 12.2 12.6433 14.68 12.27 15.72L10.35 21.04C10.2966 21.2267 10.15 21.32 9.90995 21.32H8.06995L6.18995 15.72C5.81662 14.6 5.16328 12.12 4.22995 8.28L4.10995 8.36C4.16328 8.65333 4.26995 9.36 4.42995 10.48C4.61662 11.5733 4.78995 13 4.94995 14.76C5.13662 16.52 5.22995 18.36 5.22995 20.28L5.34995 27.2C5.34995 27.4933 5.26995 27.6933 5.10995 27.8C4.94995 27.88 4.50995 27.9333 3.78995 27.96C3.06995 27.9867 2.12328 28 0.949951 28V0.800001C0.949951 0.453334 1.01662 0.24 1.14995 0.16C1.28328 0.053333 1.48328 0 1.74995 0H5.10995L8.30995 9.92C8.65662 10.9333 8.90995 11.8133 9.06995 12.56C9.25662 13.3067 9.36328 13.7733 9.38995 13.96C9.41662 13.7733 9.50995 13.3067 9.66995 12.56C9.82995 11.8133 10.0566 10.96 10.35 10L13.11 0.800001C13.2166 0.48 13.31 0.266667 13.39 0.16C13.4966 0.053333 13.67 0 13.91 0H17.63Z" fill="#E15154"/>
<path d="M25.9325 28.4C24.3591 28.4 23.1325 28.1467 22.2525 27.64C21.3725 27.1067 20.7058 26.0933 20.2525 24.6C19.8258 23.1067 19.6124 20.8933 19.6124 17.96C19.6124 11.0533 21.8258 7.6 26.2525 7.6C27.7458 7.6 28.9325 7.90667 29.8125 8.52C30.7191 9.10667 31.3858 10.1333 31.8125 11.6C32.2658 13.0667 32.4925 15.1333 32.4925 17.8C32.4925 21.56 31.9458 24.2667 30.8525 25.92C29.7858 27.5733 28.1458 28.4 25.9325 28.4ZM26.0525 24.72C26.3725 24.72 26.6391 24.5733 26.8525 24.28C27.0658 23.96 27.2391 23.3067 27.3725 22.32C27.5325 21.3067 27.6125 19.84 27.6125 17.92C27.6125 15.9733 27.5725 14.5467 27.4925 13.64C27.4125 12.7067 27.2658 12.08 27.0525 11.76C26.8391 11.44 26.5191 11.28 26.0925 11.28C25.5858 11.28 25.1858 11.7333 24.8925 12.64C24.6258 13.5467 24.4925 15.3067 24.4925 17.92C24.4925 19.92 24.5458 21.4133 24.6525 22.4C24.7858 23.36 24.9591 23.9867 25.1725 24.28C25.3858 24.5733 25.6791 24.72 26.0525 24.72Z" fill="#E15154"/>
<path d="M40.0246 28.4C38.5846 28.4 37.438 28.1333 36.5846 27.6C35.758 27.0667 35.1313 26.0933 34.7046 24.68C34.3046 23.24 34.1046 21.16 34.1046 18.44C34.1046 15.4533 34.438 13.16 35.1046 11.56C35.798 9.96 36.6513 8.90667 37.6646 8.4C38.7046 7.86667 39.8913 7.6 41.2246 7.6C42.2113 7.6 43.0113 7.78667 43.6246 8.16C44.238 8.50667 44.5446 9 44.5446 9.64C44.5446 10.44 44.4113 11.2267 44.1446 12C43.798 11.8667 43.3846 11.7467 42.9046 11.64C42.4513 11.5333 42.0246 11.48 41.6246 11.48C40.7446 11.48 40.038 11.9333 39.5046 12.84C38.998 13.7467 38.7446 15.5867 38.7446 18.36C38.7446 19.96 38.8246 21.2 38.9846 22.08C39.1446 22.9333 39.4113 23.5467 39.7846 23.92C40.1846 24.2933 40.7446 24.48 41.4646 24.48C41.8913 24.48 42.3446 24.4267 42.8246 24.32C43.3046 24.2133 43.7046 24.08 44.0246 23.92C44.2646 24.88 44.3846 25.6533 44.3846 26.24C44.3846 26.9067 43.9713 27.44 43.1446 27.84C42.3446 28.2133 41.3046 28.4 40.0246 28.4Z" fill="#E15154"/>
<path d="M46.24 0.800001C46.24 0.666666 46.2933 0.506666 46.4 0.320001C46.5067 0.106667 46.72 0 47.04 0H57.36C57.36 1.12 57.3467 2.02667 57.32 2.72C57.2933 3.38667 57.2267 3.8 57.12 3.96C57.04 4.09333 56.8533 4.16 56.56 4.16H50.76V11H51.96C54.3333 11 56.0133 11.5867 57 12.76C58.0133 13.9067 58.52 15.7467 58.52 18.28C58.52 21.4 57.8933 23.8 56.64 25.48C55.3867 27.16 53.7333 28 51.68 28H46.24V0.800001ZM51.6 24.12C52.0267 24.12 52.3467 23.9733 52.56 23.68C52.8 23.36 52.9733 22.8267 53.08 22.08C53.1867 21.3067 53.24 20.1867 53.24 18.72C53.24 17.7067 53.2 16.96 53.12 16.48C53.04 16 52.8933 15.6667 52.68 15.48C52.4667 15.2667 52.1333 15.16 51.68 15.16H50.76V24.04C50.92 24.0933 51.2 24.12 51.6 24.12Z" fill="white"/>
<path d="M63.2531 35.84C62.4798 35.84 61.8798 35.6267 61.4531 35.2C61.0264 34.7733 60.8131 34.12 60.8131 33.24C60.8131 33.0533 60.8398 32.7467 60.8931 32.32C61.8798 32.32 62.6131 32.08 63.0931 31.6C63.5998 31.12 64.0264 30.2 64.3731 28.84L59.9331 9.16C59.8798 8.84 59.8531 8.65333 59.8531 8.6C59.8531 8.38667 59.9598 8.24 60.1731 8.16C60.4131 8.08 60.8798 8.04 61.5731 8.04C62.2931 8.01333 63.1998 8 64.2931 8L65.4931 15C65.7331 16.44 65.9464 18.0133 66.1331 19.72C66.3198 21.4267 66.4398 22.5333 66.4931 23.04C66.5198 22.5333 66.6131 21.44 66.7731 19.76C66.9598 18.0533 67.1464 16.4667 67.3331 15L68.1331 9.24C68.1864 8.78667 68.2931 8.49333 68.4531 8.36C68.6398 8.2 68.9998 8.10667 69.5331 8.08C70.0931 8.02667 71.1998 8 72.8531 8L68.3731 28.92C67.8398 31.4 67.1731 33.1733 66.3731 34.24C65.5998 35.3067 64.5598 35.84 63.2531 35.84Z" fill="white"/>
<path d="M84.7269 28.08C83.8735 28.08 82.9269 28.04 81.8869 27.96L81.5669 22.8C81.4869 21.76 81.3802 21 81.2469 20.52C81.1402 20.04 80.9269 19.7067 80.6069 19.52C80.3135 19.3067 79.8735 19.2 79.2869 19.2H79.0869V27.28C79.0869 27.5467 79.0202 27.72 78.8869 27.8C78.7535 27.88 78.3269 27.9333 77.6069 27.96C76.9135 27.9867 75.9535 28 74.7269 28V8.72C74.7269 8.45333 74.7935 8.28 74.9269 8.2C75.0602 8.12 75.4735 8.06667 76.1669 8.04C76.8869 8.01333 77.8602 8 79.0869 8V15.28H79.4869C80.4202 15.28 80.9935 14.68 81.2069 13.48L82.2469 8.24C83.1802 8.02667 84.0735 7.92 84.9269 7.92C85.5669 7.92 86.0202 7.96 86.2869 8.04C86.5535 8.12 86.6869 8.28 86.6869 8.52L86.6069 8.88L85.2469 14.16C84.9002 15.3867 84.2735 16.2667 83.3669 16.8C84.1402 17.2 84.7535 17.8933 85.2069 18.88C85.6869 19.84 85.9935 21.0133 86.1269 22.4L86.4869 27.28C86.4869 27.6 86.3802 27.8133 86.1669 27.92C85.9535 28.0267 85.4735 28.08 84.7269 28.08Z" fill="white"/>
<path d="M88.82 8.8C88.82 8.53333 88.9 8.33333 89.06 8.2C89.22 8.06667 89.5133 8 89.94 8H93.54C97.8067 8 99.94 9.53333 99.94 12.6C99.94 14.1733 99.58 15.3333 98.86 16.08C98.14 16.8267 97.34 17.2667 96.46 17.4C96.8333 17.4 97.2067 17.4267 97.58 17.48C98.2733 17.5867 98.98 17.92 99.7 18.48C100.42 19.04 100.78 20.08 100.78 21.6C100.78 23.44 100.207 24.9733 99.06 26.2C97.9133 27.4 96.1533 28 93.78 28H88.82V8.8ZM93.06 16.12C93.1933 16.1467 93.4467 16.16 93.82 16.16C94.22 16.16 94.5667 15.9333 94.86 15.48C95.1533 15.0267 95.3 14.36 95.3 13.48C95.3 12.6533 95.18 12.0933 94.94 11.8C94.7267 11.5067 94.4067 11.36 93.98 11.36C93.74 11.36 93.54 11.3733 93.38 11.4C93.22 11.4267 93.1133 11.44 93.06 11.44V16.12ZM93.86 24.48C95.1133 24.48 95.74 23.36 95.74 21.12C95.74 20.2933 95.5933 19.7467 95.3 19.48C95.0333 19.1867 94.58 19.04 93.94 19.04C93.6467 19.04 93.4333 19.0533 93.3 19.08C93.1667 19.1067 93.0867 19.12 93.06 19.12V24.44C93.22 24.4667 93.4867 24.48 93.86 24.48Z" fill="white"/>
<path d="M108.082 28.4C106.935 28.4 105.948 28.2533 105.122 27.96C104.322 27.6667 103.668 27.0667 103.162 26.16C102.655 25.2267 102.402 23.8933 102.402 22.16C102.402 19.6533 102.828 17.9333 103.682 17C104.535 16.04 105.655 15.56 107.042 15.56C107.442 15.56 107.882 15.6133 108.362 15.72C108.868 15.8 109.282 15.9467 109.602 16.16V13.4C109.602 12.8667 109.468 12.48 109.202 12.24C108.962 12 108.535 11.88 107.922 11.88C107.175 11.88 106.348 11.96 105.442 12.12C104.535 12.28 103.748 12.48 103.082 12.72C102.682 11.9467 102.482 11.0933 102.482 10.16C102.482 9.89333 102.535 9.62667 102.642 9.36C102.748 9.09333 102.882 8.89333 103.042 8.76C103.388 8.49333 104.108 8.24 105.202 8C106.295 7.73333 107.562 7.6 109.002 7.6C110.842 7.6 112.135 7.97333 112.882 8.72C113.655 9.44 114.042 10.6933 114.042 12.48V14.36C114.042 20.8933 113.975 25.1467 113.842 27.12C112.402 27.9733 110.482 28.4 108.082 28.4ZM108.402 24.76C108.908 24.76 109.282 24.6267 109.522 24.36C109.575 23.7467 109.602 22.0133 109.602 19.16C109.335 18.92 108.975 18.8 108.522 18.8C108.042 18.8 107.682 19.04 107.442 19.52C107.202 19.9733 107.082 20.8133 107.082 22.04C107.082 23.0267 107.175 23.7333 107.362 24.16C107.548 24.56 107.895 24.76 108.402 24.76Z" fill="white"/>
<path d="M119.76 28.28C118.72 28.28 117.987 28.0533 117.56 27.6C117.133 27.12 116.92 26.4 116.92 25.44C116.92 24.64 117.173 23.96 117.68 23.4C118.213 22.84 118.907 22.56 119.76 22.56C120.773 22.56 121.493 22.8133 121.92 23.32C122.347 23.8 122.56 24.5067 122.56 25.44C122.56 26.24 122.307 26.92 121.8 27.48C121.32 28.0133 120.64 28.28 119.76 28.28Z" fill="#E15154"/>
</svg>
