<svg id="Capa_1" data-name="Capa 1" xmlns="http://www.w3.org/2000/svg" viewBox="0 0 512 479.37"><defs><style>.cls-1{fill:#4c4b4b;}</style></defs><title>gift</title><path class="cls-1" d="M480,143.69H378.75a123.67,123.67,0,0,0,17.86-14.31,66.94,66.94,0,0,0,0-94.14C371.55,10,327.84,10,302.75,35.24c-13.85,13.92-50.69,70.59-45.6,108.45h-2.3c5-37.86-31.75-94.53-45.6-108.45-25.09-25.25-68.8-25.22-93.86,0a67,67,0,0,0,0,94.14,125.8,125.8,0,0,0,17.89,14.31H32a32,32,0,0,0-32,32v80a16,16,0,0,0,16,16H32v192a32.06,32.06,0,0,0,32,32H448a32.06,32.06,0,0,0,32-32v-192h16a16,16,0,0,0,16-16v-80A32,32,0,0,0,480,143.69ZM138.08,57.8a34.11,34.11,0,0,1,48.48,0c21.57,21.69,43,77.12,35.55,84.83,0,0-1.34,1.06-5.92,1.06-22.11,0-64.32-23-78.11-36.87A34.89,34.89,0,0,1,138.08,57.8ZM240,463.69H64v-192H240Zm0-224H32v-64H240ZM325.44,57.8c13-13,35.52-13,48.48,0a34.89,34.89,0,0,1,0,49c-13.79,13.89-56,36.87-78.11,36.87-4.58,0-5.92-1-5.95-1.06C282.43,134.92,303.87,79.49,325.44,57.8ZM448,463.69H272v-192H448Zm32-224H272v-64H480Z" transform="translate(0 -16.31)"/></svg>